<?xml version="1.0" encoding="UTF-8"?>
<svg id="a" data-name="Layer 1" xmlns="http://www.w3.org/2000/svg" width="894" height="122.442" viewBox="0 0 894 122.442">
  <polygon points="3 115.163 3 7.278 52.562 7.278 52.562 79.112 140.968 79.112 140.968 115.163 3 115.163" style="fill: none; stroke: #000; stroke-miterlimit: 10; stroke-width: 6px;"/>
  <path d="M248.509,74.337l-15.223-30.778h-.922l-15.159,30.778h31.304ZM262.492,102.615h-59.214l-6.18,12.548h-53.822L199.286,7.278h67.511l55.579,107.885h-53.681l-6.203-12.548Z" style="fill: none; stroke: #000; stroke-miterlimit: 10; stroke-width: 6px;"/>
  <polygon points="482.583 7.278 482.583 115.163 424.454 115.163 374.768 58.997 373.542 58.997 373.542 115.163 326.798 115.163 326.798 7.278 385.524 7.278 434.612 62.701 435.836 62.701 435.836 7.278 482.583 7.278" style="fill: none; stroke: #000; stroke-miterlimit: 10; stroke-width: 6px;"/>
  <path d="M543.317,40.798v40.845h30.321c14.064,0,23.136-5.901,23.136-20.423s-9.072-20.423-23.136-20.423h-30.321ZM650.988,61.221c0,39.293-20.493,53.943-61.586,53.943h-95.644V7.278h95.644c41.093,0,61.586,14.65,61.586,53.943" style="fill: none; stroke: #000; stroke-miterlimit: 10; stroke-width: 6px;"/>
  <rect x="660.264" y="7.278" width="49.562" height="107.885" style="fill: none; stroke: #000; stroke-miterlimit: 10; stroke-width: 6px;"/>
  <path d="M836.787,61.221c0-15.217-10.902-23.771-31.732-23.771s-31.735,8.555-31.735,23.771,10.902,23.771,31.735,23.771,31.732-8.554,31.732-23.771M891,61.221c0,39.939-27.348,58.221-85.944,58.221s-85.948-18.282-85.948-58.221,27.348-58.221,85.948-58.221,85.944,18.282,85.944,58.221" style="fill: none; stroke: #000; stroke-miterlimit: 10; stroke-width: 6px;"/>
</svg>